<svg width="2200" height="1486" viewBox="0 0 2200 1486" fill="none" xmlns="http://www.w3.org/2000/svg">
<rect width="253.029" height="852.599" rx="25" transform="matrix(-0.00102729 -0.999999 -0.999999 0.00102729 2085 253.029)" fill="black"/>
<rect width="253.029" height="604.324" transform="matrix(0.00794941 0.999968 0.999968 -0.00794941 941.617 623.76)" fill="black"/>
<path d="M1276.28 262.892C1286.55 253.661 1287.42 237.821 1277.85 227.87C1179.63 125.758 1054.12 53.7375 916.015 20.5786C769.801 -14.5286 616.374 -4.41977 476.03 49.5678C335.686 103.555 215.039 198.878 130.048 322.925C45.0578 446.972 -0.271154 593.898 0.0580006 744.267C0.387155 894.637 46.3589 1041.36 131.892 1165.04C217.425 1288.71 338.488 1383.5 479.067 1436.88C619.646 1490.25 773.116 1499.69 919.175 1463.94C1057.13 1430.18 1182.33 1357.61 1280.09 1255.07C1289.62 1245.07 1288.68 1229.24 1278.38 1220.05L1079.39 1042.73C1069.09 1033.55 1053.33 1034.51 1043.56 1044.27C988.618 1099.08 919.618 1137.96 843.928 1156.49C760.126 1177 672.072 1171.58 591.415 1140.96C510.757 1110.34 441.297 1055.95 392.222 984.993C343.147 914.034 316.771 829.849 316.582 743.575C316.393 657.3 342.401 573 391.164 501.828C439.928 430.655 509.15 375.964 589.672 344.988C670.195 314.013 758.225 308.213 842.115 328.356C917.886 346.549 987.055 385.131 1042.24 439.703C1052.05 449.412 1067.81 450.311 1078.08 441.08L1276.28 262.892Z" fill="black"/>
<path d="M2156.33 762.608C2173.54 752.903 2173.22 728.013 2155.77 718.75L1736.26 496.087C1719.48 487.183 1699.3 499.499 1699.54 518.489L1705.37 974.469C1705.61 993.459 1726.11 1005.25 1742.65 995.925L2156.33 762.608Z" fill="black"/>
<rect x="1232.14" width="253.029" height="1485.17" rx="25" fill="black"/>
<rect width="164.923" height="286" transform="matrix(0.00794941 0.999968 0.999968 -0.00794941 1134.45 666.782)" fill="black"/>
<rect width="237.061" height="286" transform="matrix(-0.00102729 -0.999999 -0.999999 0.00102729 1628.36 245.792)" fill="black"/>
<rect width="253.029" height="852.599" rx="25" transform="matrix(0.00794941 0.999968 0.999968 -0.00794941 870 624.511)" fill="black"/>
<rect width="235.96" height="286" transform="matrix(0.00794941 0.999968 0.999968 -0.00794941 1579.7 627.282)" fill="black"/>
<circle cx="755.5" cy="750.5" r="221.5" fill="black"/>
<rect width="237.321" height="286" transform="matrix(0.00794941 0.999968 0.999968 -0.00794941 810.766 632.823)" fill="black"/>
</svg>
