<svg width="649" height="205" viewBox="0 0 649 205" fill="none" xmlns="http://www.w3.org/2000/svg">
<path d="M180.018 -1.98093e-05L180.04 21.8621L106.416 21.9377L106.394 0.0756564L180.018 -1.98093e-05Z" fill="#212A31"/>
<path d="M81.4798 75.7552L81.3062 53.8938L133.489 53.4787L133.663 75.3401L81.4798 75.7552Z" fill="#212A31"/>
<path d="M111.811 21.2704C103.13 11.6084 91.7215 4.81139 79.0956 1.77793C66.4694 -1.25522 53.2208 -0.381946 41.1017 4.28275C28.9823 8.94744 18.5642 17.1834 11.2252 27.9011C3.886 38.6191 -0.0283364 51.3139 0.000154431 64.3058C0.0286453 77.298 3.99837 89.9754 11.3842 100.661C18.7703 111.347 29.2245 119.537 41.3638 124.148C53.5032 128.76 66.7559 129.575 79.3685 126.486C91.9807 123.398 103.359 116.551 111.998 106.851L91.592 88.6568C86.6355 94.2219 80.107 98.1502 72.8706 99.9224C65.634 101.695 58.0304 101.227 51.0653 98.581C44.1002 95.9349 38.1023 91.2357 33.8644 85.1048C29.6269 78.9739 27.3492 71.7002 27.3327 64.2459C27.3166 56.7917 29.5623 49.5081 33.7732 43.3588C37.9842 37.2093 43.9616 32.4837 50.9149 29.8076C57.8683 27.1311 65.47 26.63 72.7139 28.3705C79.9582 30.1107 86.5039 34.0108 91.4847 39.5541L111.811 21.2704Z" fill="#212A31"/>
<path d="M189.636 63.9517L146.708 41.154L147.305 87.8399L189.636 63.9517Z" fill="#212A31"/>
<path d="M128.244 0.00012207H106.394V128.321H128.244V0.00012207Z" fill="#212A31"/>
<path d="M98.0712 71.8603L97.958 57.6111L122.654 57.4147L122.767 71.6639L98.0712 71.8603Z" fill="#212A31"/>
<path d="M140.588 0.754513L140.609 21.2369L115.912 21.2623L115.891 0.779898L140.588 0.754513Z" fill="#212A31"/>
<path d="M75.2958 75.8202L75.1221 53.9587L148.744 53.3731L148.918 75.2346L75.2958 75.8202Z" fill="#212A31"/>
<path d="M136.569 74.5848L136.407 54.1982L161.103 54.0017L161.265 74.3884L136.569 74.5848Z" fill="#212A31"/>
<path d="M65.2343 83.9822C75.7979 83.9822 84.3615 75.4139 84.3615 64.8443C84.3615 54.2747 75.7979 45.7064 65.2343 45.7064C54.6707 45.7064 46.1072 54.2747 46.1072 64.8443C46.1072 75.4139 54.6707 83.9822 65.2343 83.9822Z" fill="#212A31"/>
<path d="M70.1697 75.181L70.0068 54.6768L94.7029 54.4804L94.8658 74.9846L70.1697 75.181Z" fill="#212A31"/>
<path d="M243.319 44.7131C242.906 49.2055 241.254 52.7148 238.374 55.24C235.493 57.7463 231.659 59 226.881 59C223.538 59 220.588 58.2093 218.032 56.6289C215.496 55.0277 213.539 52.7632 212.163 49.8324C210.777 46.9016 210.059 43.4988 210 39.6233V35.6905C210 31.7183 210.698 28.2188 212.104 25.1923C213.5 22.1647 215.506 19.8321 218.121 18.1934C220.756 16.5547 223.784 15.7354 227.225 15.7354C231.845 15.7354 235.572 16.998 238.403 19.5241C241.225 22.0492 242.867 25.6167 243.319 30.2247H236.063C235.719 27.1971 234.834 25.0185 233.419 23.6878C232.013 22.3384 229.948 21.6642 227.225 21.6642C224.059 21.6642 221.611 22.83 219.91 25.1636C218.219 27.4765 217.354 30.8802 217.315 35.3717V39.1031C217.315 43.6528 218.121 47.1236 219.733 49.5145C221.365 51.9044 223.744 53.0998 226.881 53.0998C229.742 53.0998 231.885 52.4542 233.33 51.162C234.765 49.8709 235.68 47.7209 236.063 44.7131H243.319ZM247.871 42.486C247.871 39.421 248.48 36.6639 249.69 34.2158C250.899 31.7479 252.6 29.8575 254.782 28.5466C256.975 27.2169 259.492 26.5515 262.333 26.5515C266.541 26.5515 269.942 27.9109 272.558 30.6295C275.192 33.348 276.608 36.9531 276.824 41.4456L276.854 43.0941C276.854 46.1789 276.254 48.936 275.065 51.3654C273.895 53.7938 272.204 55.6743 269.992 57.004C267.809 58.3346 265.272 59 262.392 59C257.997 59 254.468 57.5351 251.823 54.6042C249.188 51.6546 247.871 47.7307 247.871 42.8335V42.486ZM254.871 43.0941C254.871 46.3132 255.539 48.8393 256.857 50.6705C258.184 52.4829 260.032 53.3891 262.392 53.3891C264.751 53.3891 266.59 52.4641 267.897 50.6132C269.215 48.7623 269.883 46.0536 269.883 42.486C269.883 39.3242 269.195 36.8179 267.838 34.967C266.492 33.1161 264.653 32.1911 262.333 32.1911C260.052 32.1911 258.233 33.1062 256.886 34.9383C255.549 36.7507 254.871 39.4693 254.871 43.0941ZM289.261 27.13L289.468 30.7449C291.768 27.9493 294.796 26.5515 298.542 26.5515C305.031 26.5515 308.334 30.282 308.442 37.7438V58.4215H301.452V38.1485C301.452 36.1624 301.02 34.6975 300.154 33.7528C299.309 32.7883 297.913 32.3066 295.976 32.3066C293.154 32.3066 291.051 33.5889 289.664 36.1525V58.4215H282.664V27.13H289.261ZM322.098 27.13L322.305 30.7449C324.605 27.9493 327.633 26.5515 331.379 26.5515C337.868 26.5515 341.171 30.282 341.279 37.7438V58.4215H334.28V38.1485C334.28 36.1624 333.847 34.6975 332.992 33.7528C332.146 32.7883 330.75 32.3066 328.813 32.3066C325.992 32.3066 323.888 33.5889 322.501 36.1525V58.4215H315.501V27.13H322.098ZM347.129 42.486C347.129 39.421 347.739 36.6639 348.948 34.2158C350.157 31.7479 351.858 29.8575 354.041 28.5466C356.233 27.2169 358.75 26.5515 361.591 26.5515C365.799 26.5515 369.201 27.9109 371.816 30.6295C374.441 33.348 375.867 36.9531 376.073 41.4456L376.103 43.0941C376.103 46.1789 375.513 48.936 374.323 51.3654C373.153 53.7938 371.462 55.6743 369.25 57.004C367.058 58.3346 364.531 59 361.65 59C357.246 59 353.726 57.5351 351.072 54.6042C348.447 51.6546 347.129 47.7307 347.129 42.8335V42.486ZM354.129 43.0941C354.129 46.3132 354.788 48.8393 356.115 50.6705C357.442 52.4829 359.281 53.3891 361.65 53.3891C364.01 53.3891 365.839 52.4641 367.146 50.6132C368.473 48.7623 369.132 46.0536 369.132 42.486C369.132 39.3242 368.454 36.8179 367.087 34.967C365.75 33.1161 363.912 32.1911 361.591 32.1911C359.301 32.1911 357.492 33.1062 356.145 34.9383C354.798 36.7507 354.129 39.4693 354.129 43.0941ZM398.341 33.5504C397.417 33.3954 396.473 33.3184 395.49 33.3184C392.285 33.3184 390.122 34.5524 389.011 37.0202V58.4215H382.011V27.13H388.697L388.864 30.6295C390.555 27.9109 392.895 26.5515 395.893 26.5515C396.896 26.5515 397.722 26.6868 398.371 26.9563L398.341 33.5504ZM418.132 58.4215V16.3139H432.506C437.244 16.3139 440.853 17.2684 443.33 19.1766C445.808 21.0857 447.046 23.9297 447.046 27.7085C447.046 29.6364 446.525 31.3718 445.493 32.9137C444.451 34.4566 442.937 35.652 440.941 36.5C443.212 37.117 444.952 38.2838 446.181 39.9994C447.43 41.6963 448.059 43.7397 448.059 46.1306C448.059 50.0831 446.791 53.1196 444.254 55.24C441.737 57.3613 438.129 58.4215 433.42 58.4215H418.132ZM425.417 39.4209V52.5796H433.508C435.799 52.5796 437.579 52.011 438.867 50.8738C440.155 49.7356 440.794 48.1552 440.794 46.1306C440.794 41.7536 438.572 39.5177 434.118 39.4209H425.417ZM425.417 34.042H432.565C434.826 34.042 436.596 33.5307 437.864 32.509C439.142 31.4675 439.791 30.0026 439.791 28.1132C439.791 26.0313 439.191 24.5269 438.001 23.6019C436.832 22.676 435.003 22.2131 432.506 22.2131H425.417V34.042ZM459.031 51.0179C460.338 51.0179 461.341 51.394 462.059 52.1462C462.767 52.8787 463.121 53.8037 463.121 54.9221C463.121 56.0208 462.767 56.9369 462.059 57.6693C461.341 58.383 460.338 58.7394 459.031 58.7394C457.782 58.7394 456.789 58.383 456.062 57.6693C455.334 56.9566 454.971 56.0405 454.971 54.9221C454.971 53.8037 455.325 52.8787 456.032 52.1462C456.74 51.394 457.743 51.0179 459.031 51.0179ZM510.676 40.5779H493.795V58.4215H486.51V16.3139H513.153V22.2131H493.795V34.736H510.676V40.5779ZM533.829 33.5504C532.914 33.3954 531.961 33.3184 530.978 33.3184C527.773 33.3184 525.61 34.5524 524.499 37.0202V58.4215H517.499V27.13H524.184L524.351 30.6295C526.042 27.9109 528.392 26.5515 531.381 26.5515C532.384 26.5515 533.209 26.6868 533.858 26.9563L533.829 33.5504ZM545.695 58.4215H538.695V27.13H545.695V58.4215ZM538.263 19.0029C538.263 17.9239 538.607 17.0266 539.275 16.3139C539.964 15.6002 540.947 15.2438 542.215 15.2438C543.483 15.2438 544.457 15.6002 545.155 16.3139C545.843 17.0266 546.187 17.9239 546.187 19.0029C546.187 20.064 545.843 20.9505 545.155 21.6642C544.457 22.3582 543.483 22.7047 542.215 22.7047C540.947 22.7047 539.964 22.3582 539.275 21.6642C538.607 20.9505 538.263 20.064 538.263 19.0029ZM552.037 42.5443C552.037 37.7241 553.148 33.8584 555.379 30.9473C557.601 28.0165 560.59 26.5515 564.336 26.5515C567.639 26.5515 570.303 27.7085 572.339 30.0214V14H579.339V58.4215H573.007L572.663 55.1827C570.569 57.7276 567.767 59 564.277 59C560.629 59 557.67 57.5252 555.409 54.5756C553.157 51.625 552.037 47.6153 552.037 42.5443ZM559.037 43.1514C559.037 46.3329 559.636 48.8196 560.846 50.6132C562.074 52.3871 563.815 53.2736 566.066 53.2736C568.927 53.2736 571.021 51.9913 572.339 49.4277V36.0666C571.051 33.5593 568.976 32.3066 566.115 32.3066C563.854 32.3066 562.104 33.2128 560.875 35.0252C559.646 36.8179 559.037 39.5266 559.037 43.1514ZM600.368 59C595.934 59 592.336 57.6022 589.563 54.8066C586.82 51.9913 585.444 48.251 585.444 43.5857V42.718C585.444 39.5947 586.044 36.808 587.233 34.3599C588.443 31.892 590.133 29.974 592.306 28.6048C594.469 27.2356 596.888 26.5515 599.562 26.5515C603.799 26.5515 607.083 27.9109 609.383 30.6295C611.704 33.348 612.864 37.194 612.864 42.1682V45.0023H592.503C592.719 47.5856 593.565 49.63 595.069 51.1334C596.583 52.6378 598.48 53.3891 600.771 53.3891C603.976 53.3891 606.591 52.088 608.607 49.4849L612.382 53.0998C611.134 54.9705 609.462 56.4265 607.368 57.467C605.294 58.4887 602.964 59 600.368 59ZM599.532 32.1911C597.615 32.1911 596.052 32.8653 594.862 34.2158C593.693 35.5652 592.945 37.4447 592.621 39.8543H605.952V39.3341C605.805 36.9817 605.176 35.2078 604.084 34.0124C602.983 32.7982 601.469 32.1911 599.532 32.1911ZM624.819 27.13L625.025 30.7449C627.326 27.9493 630.354 26.5515 634.1 26.5515C640.589 26.5515 643.892 30.282 644 37.7438V58.4215H637V38.1485C637 36.1624 636.577 34.6975 635.712 33.7528C634.867 32.7883 633.471 32.3066 631.534 32.3066C628.712 32.3066 626.608 33.5889 625.222 36.1525V58.4215H618.222V27.13H624.819Z" fill="black"/>
<path d="M219.609 117.697H215V82.4834H219.609V117.697ZM231.55 91.5289L231.698 94.8178C233.683 92.3026 236.277 91.0455 239.471 91.0455C244.955 91.0455 247.727 94.1649 247.776 100.405V117.697H243.334V100.381C243.314 98.494 242.892 97.0992 242.037 96.1968C241.211 95.2933 239.904 94.8426 238.125 94.8426C236.69 94.8426 235.422 95.2289 234.341 96.0036C233.25 96.7773 232.405 97.7926 231.796 99.0507V117.697H227.354V91.5289H231.55ZM260.493 85.1928V91.5289H265.339V94.9872H260.493V111.216C260.493 112.264 260.71 113.053 261.142 113.586C261.574 114.101 262.302 114.36 263.343 114.36C263.854 114.36 264.562 114.263 265.456 114.07V117.697C264.287 118.02 263.157 118.181 262.046 118.181C260.071 118.181 258.567 117.577 257.565 116.367C256.552 115.158 256.051 113.441 256.051 111.216V94.9872H251.324V91.5289H256.051V85.1928H260.493ZM281.319 118.181C277.8 118.181 274.931 117.02 272.729 114.699C270.518 112.361 269.417 109.24 269.417 105.338V104.516C269.417 101.921 269.908 99.6065 270.881 97.5757C271.874 95.5271 273.25 93.9312 275.009 92.787C276.778 91.626 278.704 91.0455 280.768 91.0455C284.139 91.0455 286.763 92.1659 288.631 94.4067C290.508 96.6485 291.441 99.8571 291.441 104.033V105.895H273.859C273.918 108.475 274.665 110.563 276.09 112.159C277.525 113.739 279.353 114.529 281.555 114.529C283.127 114.529 284.454 114.206 285.545 113.562C286.626 112.917 287.579 112.063 288.395 110.998L291.107 113.127C288.935 116.496 285.672 118.181 281.319 118.181ZM280.768 94.7217C278.97 94.7217 277.466 95.3825 276.257 96.705C275.039 98.0106 274.292 99.8482 273.997 102.219H286.999V101.88C286.871 99.6065 286.272 97.8491 285.181 96.6079C284.09 95.3498 282.616 94.7217 280.768 94.7217ZM309.151 95.5439C308.483 95.431 307.746 95.3745 306.969 95.3745C304.051 95.3745 302.075 96.6237 301.043 99.1231V117.697H296.601V91.5289H300.915L300.994 94.5523C302.449 92.2144 304.512 91.0455 307.186 91.0455C308.051 91.0455 308.699 91.1584 309.151 91.3843V95.5439ZM328.325 117.697C328.07 117.181 327.854 116.262 327.697 114.94C325.633 117.101 323.166 118.181 320.306 118.181C317.751 118.181 315.647 117.456 313.996 116.004C312.365 114.537 311.549 112.683 311.549 110.442C311.549 107.717 312.571 105.605 314.625 104.105C316.679 102.589 319.579 101.831 323.303 101.831H327.628V99.7759C327.628 98.2117 327.166 96.9704 326.232 96.0511C325.308 95.116 323.942 94.6484 322.134 94.6484C320.552 94.6484 319.215 95.0516 318.144 95.8579C317.073 96.6643 316.542 97.6401 316.542 98.7843H312.08C312.08 97.4786 312.532 96.2205 313.446 95.0119C314.37 93.7865 315.618 92.8187 317.191 92.1094C318.773 91.4001 320.502 91.0455 322.399 91.0455C325.387 91.0455 327.726 91.8033 329.426 93.319C331.117 94.8178 332.001 96.8902 332.06 99.5342V111.578C332.06 113.981 332.365 115.891 332.974 117.31V117.697H328.325ZM320.955 114.288C322.35 114.288 323.667 113.924 324.915 113.199C326.163 112.474 327.068 111.53 327.628 110.37V105H324.149C318.704 105 315.991 106.604 315.991 109.813C315.991 111.216 316.453 112.312 317.377 113.102C318.311 113.892 319.5 114.288 320.955 114.288ZM349.436 114.529C351.018 114.529 352.404 114.045 353.583 113.078C354.772 112.11 355.431 110.902 355.559 109.45H359.755C359.677 110.949 359.165 112.377 358.222 113.731C357.278 115.085 356.011 116.166 354.428 116.972C352.856 117.778 351.195 118.181 349.436 118.181C345.898 118.181 343.087 116.996 340.994 114.625C338.91 112.24 337.868 108.983 337.868 104.855V104.105C337.868 101.558 338.33 99.2925 339.264 97.3092C340.188 95.326 341.515 93.7866 343.244 92.6899C344.994 91.5933 347.048 91.0455 349.416 91.0455C352.325 91.0455 354.743 91.9241 356.659 93.6815C358.595 95.4389 359.627 97.7204 359.755 100.526H355.559C355.431 98.8328 354.782 97.4459 353.632 96.3661C352.502 95.2695 351.087 94.7217 349.416 94.7217C347.156 94.7217 345.406 95.5439 344.158 97.1884C342.93 98.817 342.311 101.179 342.311 104.274V105.121C342.311 108.136 342.93 110.458 344.158 112.086C345.387 113.715 347.146 114.529 349.436 114.529ZM370.762 85.1928V91.5289H375.617V94.9872H370.762V111.216C370.762 112.264 370.979 113.053 371.411 113.586C371.843 114.101 372.581 114.36 373.622 114.36C374.133 114.36 374.841 114.263 375.735 114.07V117.697C374.566 118.02 373.426 118.181 372.325 118.181C370.34 118.181 368.846 117.577 367.843 116.367C366.831 115.158 366.33 113.441 366.33 111.216V94.9872H361.603V91.5289H366.33V85.1928H370.762ZM385.642 117.697H381.2V91.5289H385.642V117.697ZM380.846 84.5875C380.846 83.8624 381.062 83.2492 381.494 82.7499C381.937 82.2496 382.595 82 383.46 82C384.325 82 384.983 82.2496 385.426 82.7499C385.878 83.2492 386.094 83.8624 386.094 84.5875C386.094 85.3137 385.878 85.918 385.426 86.4014C384.983 86.8848 384.325 87.1275 383.46 87.1275C382.595 87.1275 381.937 86.8848 381.494 86.4014C381.062 85.918 380.846 85.3137 380.846 84.5875ZM391.597 104.371C391.597 101.808 392.089 99.5015 393.081 97.4539C394.084 95.4062 395.48 93.8262 397.258 92.7137C399.047 91.6012 401.091 91.0455 403.371 91.0455C406.909 91.0455 409.769 92.2788 411.941 94.7455C414.133 97.2122 415.224 100.493 415.224 104.589V104.903C415.224 107.451 414.742 109.741 413.759 111.772C412.806 113.787 411.42 115.36 409.612 116.488C407.823 117.617 405.759 118.181 403.42 118.181C399.902 118.181 397.052 116.948 394.86 114.481C392.679 112.014 391.597 108.749 391.597 104.685V104.371ZM396.059 104.903C396.059 107.806 396.718 110.136 398.045 111.893C399.391 113.651 401.18 114.529 403.42 114.529C405.681 114.529 407.469 113.643 408.796 111.869C410.123 110.079 410.791 107.58 410.791 104.371C410.791 101.502 410.113 99.1795 408.747 97.4063C407.401 95.6162 405.612 94.7217 403.371 94.7217C401.18 94.7217 399.411 95.6004 398.074 97.3578C396.728 99.1152 396.059 101.63 396.059 104.903ZM424.993 91.5289L425.14 94.8178C427.116 92.3026 429.71 91.0455 432.914 91.0455C438.398 91.0455 441.16 94.1649 441.209 100.405V117.697H436.776V100.381C436.757 98.494 436.324 97.0992 435.479 96.1968C434.644 95.2933 433.346 94.8426 431.568 94.8426C430.123 94.8426 428.865 95.2289 427.774 96.0036C426.693 96.7773 425.838 97.7926 425.229 99.0507V117.697H420.796V91.5289H424.993ZM460.796 117.697V82.4834H470.653C473.69 82.4834 476.383 83.161 478.712 84.5152C481.051 85.8694 482.849 87.7962 484.117 90.2955C485.395 92.7949 486.044 95.6648 486.053 98.9051V101.155C486.053 104.476 485.415 107.386 484.137 109.885C482.869 112.385 481.061 114.304 478.692 115.642C476.343 116.98 473.592 117.665 470.457 117.697H460.796ZM465.395 86.3053V113.9H470.24C473.798 113.9 476.56 112.788 478.525 110.563C480.51 108.338 481.503 105.17 481.503 101.058V99.0022C481.503 95.003 480.56 91.8994 478.692 89.6913C476.835 87.4653 474.191 86.337 470.771 86.3053H465.395ZM503.115 118.181C499.596 118.181 496.736 117.02 494.525 114.699C492.324 112.361 491.213 109.24 491.213 105.338V104.516C491.213 101.921 491.704 99.6065 492.677 97.5757C493.67 95.5271 495.046 93.9312 496.805 92.787C498.584 91.626 500.5 91.0455 502.564 91.0455C505.935 91.0455 508.559 92.1659 510.436 94.4067C512.304 96.6485 513.237 99.8571 513.237 104.033V105.895H495.655C495.714 108.475 496.461 110.563 497.886 112.159C499.321 113.739 501.149 114.529 503.36 114.529C504.923 114.529 506.25 114.206 507.341 113.562C508.432 112.917 509.375 112.063 510.191 110.998L512.903 113.127C510.731 116.496 507.468 118.181 503.115 118.181ZM502.564 94.7217C500.776 94.7217 499.272 95.3825 498.053 96.705C496.835 98.0106 496.088 99.8482 495.803 102.219H508.805V101.88C508.677 99.6065 508.068 97.8491 506.977 96.6079C505.896 95.3498 504.422 94.7217 502.564 94.7217ZM533.512 110.756C533.512 109.547 533.06 108.611 532.146 107.951C531.252 107.274 529.679 106.693 527.419 106.209C525.178 105.726 523.399 105.145 522.073 104.469C520.756 103.791 519.783 102.985 519.144 102.049C518.525 101.114 518.21 100.002 518.21 98.712C518.21 96.5672 519.105 94.7534 520.893 93.2704C522.702 91.7864 525.011 91.0455 527.802 91.0455C530.751 91.0455 533.129 91.8112 534.957 93.3427C536.795 94.8743 537.719 96.8337 537.719 99.2202H533.257C533.257 97.9947 532.736 96.9387 531.694 96.0511C530.672 95.1645 529.375 94.7217 527.802 94.7217C526.191 94.7217 524.923 95.0764 524.019 95.7856C523.105 96.4949 522.653 97.4222 522.653 98.5664C522.653 99.6471 523.075 100.461 523.92 101.009C524.766 101.558 526.299 102.082 528.5 102.581C530.721 103.082 532.53 103.678 533.906 104.371C535.281 105.065 536.294 105.903 536.952 106.887C537.62 107.854 537.954 109.039 537.954 110.442C537.954 112.78 537.031 114.658 535.173 116.077C533.316 117.479 530.908 118.181 527.95 118.181C525.866 118.181 524.028 117.81 522.436 117.068C520.834 116.327 519.576 115.295 518.662 113.973C517.768 112.634 517.326 111.192 517.326 109.644H521.758C521.837 111.143 522.436 112.336 523.537 113.223C524.657 114.094 526.132 114.529 527.95 114.529C529.63 114.529 530.977 114.191 531.979 113.513C533.001 112.82 533.512 111.901 533.512 110.756ZM548.559 117.697H544.126V91.5289H548.559V117.697ZM543.763 84.5875C543.763 83.8624 543.979 83.2492 544.412 82.7499C544.854 82.2496 545.512 82 546.377 82C547.242 82 547.9 82.2496 548.343 82.7499C548.795 83.2492 549.021 83.8624 549.021 84.5875C549.021 85.3137 548.795 85.918 548.343 86.4014C547.9 86.8848 547.242 87.1275 546.377 87.1275C545.512 87.1275 544.854 86.8848 544.412 86.4014C543.979 85.918 543.763 85.3137 543.763 84.5875ZM554.632 104.395C554.632 100.316 555.566 97.0754 557.443 94.6732C559.311 92.254 561.787 91.0455 564.873 91.0455C568.048 91.0455 570.514 92.1738 572.293 94.4315L572.509 91.5289H576.559V117.068C576.559 120.454 575.566 123.123 573.561 125.074C571.576 127.025 568.912 128 565.551 128C563.674 128 561.846 127.597 560.058 126.791C558.259 125.985 556.893 124.88 555.949 123.478L558.259 120.793C560.156 123.164 562.485 124.349 565.237 124.349C567.399 124.349 569.079 123.735 570.278 122.51C571.487 121.285 572.097 119.56 572.097 117.335V115.085C570.328 117.15 567.9 118.181 564.834 118.181C561.787 118.181 559.33 116.948 557.443 114.481C555.566 112.014 554.632 108.652 554.632 104.395ZM559.094 104.903C559.094 107.854 559.694 110.176 560.893 111.869C562.092 113.546 563.772 114.384 565.935 114.384C568.735 114.384 570.79 113.102 572.097 110.538V98.5911C570.74 96.0917 568.696 94.8426 565.984 94.8426C563.822 94.8426 562.131 95.6886 560.922 97.3815C559.704 99.0745 559.094 101.582 559.094 104.903ZM587.477 91.5289L587.625 94.8178C589.61 92.3026 592.195 91.0455 595.399 91.0455C600.883 91.0455 603.654 94.1649 603.703 100.405V117.697H599.261V100.381C599.241 98.494 598.809 97.0992 597.964 96.1968C597.128 95.2933 595.831 94.8426 594.052 94.8426C592.617 94.8426 591.35 95.2289 590.259 96.0036C589.178 96.7773 588.323 97.7926 587.723 99.0507V117.697H583.281V91.5289H587.477ZM621.167 118.181C617.649 118.181 614.789 117.02 612.578 114.699C610.366 112.361 609.266 109.24 609.266 105.338V104.516C609.266 101.921 609.757 99.6065 610.73 97.5757C611.723 95.5271 613.099 93.9312 614.858 92.787C616.637 91.626 618.553 91.0455 620.617 91.0455C623.988 91.0455 626.612 92.1659 628.489 94.4067C630.356 96.6485 631.29 99.8571 631.29 104.033V105.895H613.708C613.767 108.475 614.514 110.563 615.939 112.159C617.374 113.739 619.202 114.529 621.403 114.529C622.976 114.529 624.302 114.206 625.393 113.562C626.474 112.917 627.428 112.063 628.243 110.998L630.956 113.127C628.784 116.496 625.521 118.181 621.167 118.181ZM620.617 94.7217C618.819 94.7217 617.315 95.3825 616.106 96.705C614.887 98.0106 614.14 99.8482 613.846 102.219H626.858V101.88C626.73 99.6065 626.121 97.8491 625.03 96.6079C623.939 95.3498 622.475 94.7217 620.617 94.7217ZM649 95.5439C648.332 95.431 647.604 95.3745 646.818 95.3745C643.909 95.3745 641.934 96.6237 640.892 99.1231V117.697H636.45V91.5289H640.774L640.843 94.5523C642.297 92.2144 644.361 91.0455 647.034 91.0455C647.899 91.0455 648.548 91.1584 649 91.3843V95.5439Z" fill="black"/>
<path d="M64.6319 171.419V188.982C64.6198 191.418 63.8596 193.41 62.3391 194.959C60.8307 196.509 58.7792 197.378 56.1847 197.568L55.2797 197.603C52.468 197.603 50.2235 196.84 48.5462 195.314C46.8688 193.79 46.0241 191.69 46 189.017V171.419H49.3547V188.91C49.3547 190.779 49.8736 192.233 50.8993 193.275C51.925 194.303 53.3852 194.818 55.2797 194.818C57.1984 194.818 58.6706 194.303 59.6843 193.275C60.71 192.245 61.2168 190.797 61.2168 188.928V171.419H64.6319ZM73.634 197.248H70.2311V171.419H73.634V197.248ZM79.9935 199.466H77.1819L87.9338 171.419H90.7213L79.9935 199.466ZM112.889 171.419V188.982C112.877 191.418 112.117 193.41 110.596 194.959C109.088 196.509 107.036 197.378 104.442 197.568L103.537 197.603C100.725 197.603 98.4807 196.84 96.8033 195.314C95.126 193.79 94.2812 191.69 94.257 189.017V171.419H97.6118V188.91C97.6118 190.779 98.1307 192.233 99.1564 193.275C100.182 194.303 101.642 194.818 103.537 194.818C105.456 194.818 106.928 194.303 107.941 193.275C108.967 192.245 109.474 190.797 109.474 188.928V171.419H112.889ZM126.646 181.318L132.812 171.419H136.806L128.673 184.227L136.999 197.248H132.969L126.646 187.172L120.274 197.248H116.268L124.606 184.227L116.461 171.419H120.443L126.646 181.318ZM165.201 187.616H156.573V184.937H165.201V187.616ZM190.264 187.136V197.248H186.862V171.419H196.359C199.17 171.419 201.378 172.141 202.971 173.583C204.576 175.026 205.373 176.937 205.373 179.313C205.373 181.821 204.588 183.754 203.02 185.114C201.463 186.463 199.23 187.136 196.322 187.136H190.264ZM190.264 184.352H196.359C198.169 184.352 199.568 183.926 200.534 183.074C201.499 182.211 201.982 180.97 201.982 179.349C201.982 177.811 201.499 176.582 200.534 175.659C199.568 174.736 198.241 174.258 196.552 174.222H190.264V184.352ZM218.442 180.999C217.947 180.916 217.404 180.874 216.825 180.874C214.689 180.874 213.229 181.791 212.468 183.624V197.248H209.198V178.053H212.372L212.432 180.271C213.494 178.556 215.014 177.699 216.993 177.699C217.621 177.699 218.104 177.782 218.442 177.947V180.999ZM220.24 187.474C220.24 185.593 220.602 183.901 221.338 182.4C222.074 180.898 223.1 179.739 224.415 178.923C225.73 178.107 227.239 177.699 228.916 177.699C231.523 177.699 233.622 178.603 235.227 180.414C236.844 182.223 237.653 184.629 237.653 187.634V187.864C237.653 189.733 237.291 191.412 236.579 192.902C235.867 194.381 234.853 195.533 233.514 196.362C232.198 197.189 230.678 197.603 228.952 197.603C226.358 197.603 224.258 196.698 222.641 194.889C221.036 193.08 220.24 190.684 220.24 187.704V187.474ZM223.534 187.864C223.534 189.993 224.017 191.702 224.994 192.99C225.984 194.28 227.311 194.924 228.952 194.924C230.618 194.924 231.933 194.274 232.91 192.973C233.888 191.66 234.383 189.827 234.383 187.474C234.383 185.368 233.876 183.665 232.874 182.365C231.885 181.052 230.569 180.395 228.916 180.395C227.311 180.395 226.008 181.04 225.018 182.33C224.029 183.618 223.534 185.464 223.534 187.864ZM246.184 173.405V178.053H249.756V180.59H246.184V192.494C246.184 193.263 246.353 193.843 246.667 194.233C246.981 194.611 247.524 194.801 248.296 194.801C248.67 194.801 249.189 194.729 249.853 194.588V197.248C248.984 197.484 248.151 197.603 247.343 197.603C245.883 197.603 244.773 197.16 244.036 196.272C243.288 195.386 242.914 194.126 242.914 192.494V180.59H239.439V178.053H242.914V173.405H246.184ZM252.375 187.474C252.375 185.593 252.737 183.901 253.473 182.4C254.209 180.898 255.235 179.739 256.55 178.923C257.865 178.107 259.374 177.699 261.051 177.699C263.658 177.699 265.77 178.603 267.363 180.414C268.98 182.223 269.788 184.629 269.788 187.634V187.864C269.788 189.733 269.426 191.412 268.714 192.902C268.002 194.381 266.988 195.533 265.649 196.362C264.334 197.189 262.813 197.603 261.087 197.603C258.493 197.603 256.393 196.698 254.776 194.889C253.183 193.08 252.375 190.684 252.375 187.704V187.474ZM255.669 187.864C255.669 189.993 256.152 191.702 257.129 192.99C258.119 194.28 259.446 194.924 261.087 194.924C262.753 194.924 264.068 194.274 265.046 192.973C266.035 191.66 266.518 189.827 266.518 187.474C266.518 185.368 266.023 183.665 265.021 182.365C264.02 181.052 262.704 180.395 261.051 180.395C259.446 180.395 258.143 181.04 257.154 182.33C256.164 183.618 255.669 185.464 255.669 187.864ZM278.332 173.405V178.053H281.891V180.59H278.332V192.494C278.332 193.263 278.489 193.843 278.802 194.233C279.116 194.611 279.659 194.801 280.431 194.801C280.805 194.801 281.324 194.729 281.988 194.588V197.248C281.119 197.484 280.287 197.603 279.478 197.603C278.018 197.603 276.908 197.16 276.172 196.272C275.423 195.386 275.061 194.126 275.061 192.494V180.59H271.574V178.053H275.061V173.405H278.332ZM291.992 192.44L296.445 178.053H299.944L292.257 200.21C291.063 203.404 289.168 205 286.586 205L285.958 204.947L284.739 204.717V202.056L285.632 202.126C286.73 202.126 287.599 201.902 288.203 201.453C288.83 201.004 289.349 200.181 289.747 198.987L290.471 197.035L283.641 178.053H287.213L291.992 192.44ZM319.035 187.864C319.035 190.785 318.371 193.138 317.043 194.924C315.704 196.711 313.906 197.603 311.625 197.603C309.308 197.603 307.486 196.864 306.147 195.386V204.628H302.877V178.053H305.869L306.026 180.182C307.353 178.527 309.212 177.699 311.577 177.699C313.87 177.699 315.692 178.568 317.019 180.307C318.359 182.045 319.035 184.463 319.035 187.562V187.864ZM315.764 187.491C315.764 185.327 315.306 183.618 314.389 182.365C313.472 181.111 312.205 180.484 310.6 180.484C308.621 180.484 307.136 181.366 306.147 183.128V192.299C307.124 194.049 308.621 194.924 310.636 194.924C312.205 194.924 313.447 194.303 314.365 193.062C315.306 191.808 315.764 189.952 315.764 187.491ZM326.758 197.248H323.488V178.053H326.758V197.248ZM323.222 172.962C323.222 172.431 323.379 171.981 323.705 171.614C324.03 171.247 324.513 171.064 325.153 171.064C325.792 171.064 326.275 171.247 326.601 171.614C326.927 171.981 327.096 172.431 327.096 172.962C327.096 173.495 326.927 173.938 326.601 174.293C326.275 174.648 325.792 174.825 325.153 174.825C324.513 174.825 324.03 174.648 323.705 174.293C323.379 173.938 323.222 173.495 323.222 172.962ZM335.108 178.053L335.205 180.467C336.677 178.621 338.584 177.699 340.937 177.699C344.979 177.699 347.019 179.987 347.055 184.564V197.248H343.785V184.547C343.773 183.163 343.459 182.139 342.831 181.478C342.216 180.816 341.251 180.484 339.947 180.484C338.885 180.484 337.956 180.769 337.16 181.335C336.351 181.903 335.724 182.648 335.277 183.571V197.248H332.007V178.053H335.108ZM351.206 187.491C351.206 184.5 351.894 182.122 353.269 180.36C354.657 178.586 356.479 177.699 358.76 177.699C361.089 177.699 362.911 178.527 364.215 180.182L364.372 178.053H367.364V196.787C367.364 199.271 366.628 201.228 365.156 202.659C363.696 204.089 361.729 204.805 359.255 204.805C357.867 204.805 356.528 204.51 355.2 203.919C353.885 203.328 352.871 202.517 352.183 201.488L353.873 199.519C355.273 201.258 356.998 202.126 359.026 202.126C360.606 202.126 361.849 201.677 362.73 200.778C363.623 199.88 364.082 198.614 364.082 196.982V195.332C362.767 196.846 360.981 197.603 358.724 197.603C356.48 197.603 354.669 196.698 353.269 194.889C351.894 193.08 351.206 190.613 351.206 187.491ZM354.5 187.864C354.5 190.028 354.935 191.731 355.816 192.973C356.709 194.202 357.94 194.818 359.533 194.818C361.596 194.818 363.104 193.878 364.082 191.997V183.234C363.068 181.401 361.572 180.484 359.569 180.484C357.976 180.484 356.733 181.105 355.84 182.346C354.947 183.589 354.5 185.427 354.5 187.864ZM397.074 187.616H388.458V184.937H397.074V187.616ZM427.266 192.725L434.627 171.419H438.332L428.787 197.248H425.782L416.261 171.419H419.953L427.266 192.725ZM444.836 197.248H441.566V178.053H444.836V197.248ZM441.301 172.962C441.301 172.431 441.469 171.981 441.783 171.614C442.109 171.247 442.592 171.064 443.231 171.064C443.871 171.064 444.354 171.247 444.679 171.614C445.017 171.981 445.174 172.431 445.174 172.962C445.174 173.495 445.017 173.938 444.679 174.293C444.354 174.648 443.871 174.825 443.231 174.825C442.592 174.825 442.109 174.648 441.783 174.293C441.469 173.938 441.301 173.495 441.301 172.962ZM461.224 192.157C461.224 191.269 460.886 190.584 460.222 190.099C459.558 189.603 458.4 189.177 456.735 188.822C455.081 188.467 453.778 188.041 452.801 187.544C451.823 187.048 451.111 186.457 450.641 185.77C450.182 185.085 449.953 184.268 449.953 183.323C449.953 181.749 450.604 180.42 451.932 179.331C453.259 178.243 454.961 177.699 457.024 177.699C459.184 177.699 460.946 178.26 462.286 179.384C463.637 180.508 464.325 181.944 464.325 183.696H461.031C461.031 182.796 460.644 182.022 459.884 181.372C459.124 180.721 458.171 180.395 457.024 180.395C455.83 180.395 454.9 180.656 454.225 181.177C453.561 181.696 453.223 182.377 453.223 183.216C453.223 184.008 453.537 184.606 454.152 185.008C454.78 185.41 455.902 185.794 457.531 186.161C459.172 186.527 460.5 186.965 461.513 187.474C462.527 187.983 463.275 188.597 463.758 189.318C464.252 190.028 464.494 190.898 464.494 191.926C464.494 193.641 463.818 195.019 462.442 196.06C461.079 197.088 459.305 197.603 457.121 197.603C455.588 197.603 454.237 197.331 453.066 196.787C451.883 196.243 450.954 195.486 450.291 194.516C449.627 193.535 449.301 192.477 449.301 191.341H452.571C452.62 192.44 453.066 193.316 453.875 193.966C454.695 194.605 455.781 194.924 457.121 194.924C458.364 194.924 459.353 194.676 460.101 194.179C460.85 193.671 461.224 192.996 461.224 192.157ZM480.568 195.351C479.288 196.852 477.43 197.603 474.956 197.603C472.929 197.603 471.372 197.012 470.298 195.829C469.236 194.635 468.693 192.873 468.681 190.543V178.053H471.951V190.454C471.951 193.363 473.134 194.818 475.487 194.818C477.985 194.818 479.65 193.884 480.471 192.015V178.053H483.741V197.248H480.64L480.568 195.351ZM500.539 197.248C500.346 196.87 500.201 196.196 500.08 195.226C498.56 196.811 496.75 197.603 494.638 197.603C492.756 197.603 491.199 197.071 489.992 196.007C488.785 194.93 488.182 193.57 488.182 191.926C488.182 189.928 488.942 188.379 490.451 187.279C491.971 186.167 494.095 185.611 496.846 185.611H500.032V184.104C500.032 182.956 499.682 182.045 499.006 181.372C498.319 180.685 497.317 180.342 495.977 180.342C494.807 180.342 493.829 180.638 493.045 181.229C492.261 181.821 491.862 182.537 491.862 183.376H488.568C488.568 182.418 488.906 181.495 489.582 180.609C490.27 179.71 491.187 179 492.333 178.48C493.504 177.959 494.783 177.699 496.171 177.699C498.379 177.699 500.105 178.254 501.347 179.366C502.602 180.467 503.254 181.986 503.302 183.926V192.76C503.302 194.522 503.519 195.923 503.966 196.965V197.248H500.539ZM495.109 194.747C496.134 194.747 497.112 194.481 498.029 193.948C498.946 193.417 499.61 192.725 500.032 191.874V187.935H497.462C493.455 187.935 491.452 189.111 491.452 191.466C491.452 192.494 491.79 193.298 492.478 193.878C493.166 194.457 494.047 194.747 495.109 194.747ZM511.979 197.248H508.708V170H511.979V197.248ZM526.725 197.248V171.419H533.989C536.222 171.419 538.201 171.916 539.926 172.909C541.64 173.903 542.968 175.316 543.897 177.149C544.838 178.982 545.321 181.087 545.333 183.464V185.114C545.333 187.55 544.862 189.685 543.921 191.519C542.992 193.351 541.652 194.758 539.902 195.74C538.177 196.721 536.149 197.224 533.845 197.248H526.725ZM530.116 174.222V194.463H533.688C536.294 194.463 538.334 193.647 539.782 192.015C541.242 190.383 541.978 188.059 541.978 185.043V183.536C541.978 180.603 541.29 178.326 539.902 176.705C538.539 175.073 536.596 174.246 534.074 174.222H530.116ZM557.907 197.603C555.312 197.603 553.201 196.752 551.572 195.049C549.942 193.334 549.134 191.045 549.134 188.184V187.581C549.134 185.676 549.496 183.979 550.208 182.488C550.944 180.986 551.958 179.815 553.249 178.976C554.564 178.125 555.976 177.699 557.497 177.699C559.982 177.699 561.913 178.521 563.289 180.165C564.677 181.809 565.364 184.162 565.364 187.226V188.592H552.404C552.452 190.483 552.995 192.015 554.045 193.186C555.107 194.345 556.447 194.924 558.076 194.924C559.234 194.924 560.212 194.688 561.008 194.215C561.817 193.741 562.516 193.115 563.12 192.334L565.111 193.895C563.506 196.367 561.105 197.603 557.907 197.603ZM557.497 180.395C556.169 180.395 555.071 180.88 554.166 181.85C553.273 182.808 552.718 184.156 552.513 185.895H562.094V185.647C561.998 183.979 561.551 182.69 560.743 181.78C559.946 180.857 558.86 180.395 557.497 180.395ZM580.292 192.157C580.292 191.269 579.966 190.584 579.29 190.099C578.626 189.603 577.468 189.177 575.803 188.822C574.161 188.467 572.846 188.041 571.869 187.544C570.903 187.048 570.179 186.457 569.709 185.77C569.25 185.085 569.021 184.268 569.021 183.323C569.021 181.749 569.684 180.42 571 179.331C572.327 178.243 574.029 177.699 576.092 177.699C578.264 177.699 580.014 178.26 581.353 179.384C582.717 180.508 583.393 181.944 583.393 183.696H580.099C580.099 182.796 579.725 182.022 578.952 181.372C578.204 180.721 577.251 180.395 576.092 180.395C574.898 180.395 573.968 180.656 573.293 181.177C572.629 181.696 572.291 182.377 572.291 183.216C572.291 184.008 572.605 184.606 573.232 185.008C573.848 185.41 574.982 185.794 576.599 186.161C578.24 186.527 579.568 186.965 580.581 187.474C581.595 187.983 582.343 188.597 582.826 189.318C583.321 190.028 583.562 190.898 583.562 191.926C583.562 193.641 582.886 195.019 581.523 196.06C580.147 197.088 578.373 197.603 576.201 197.603C574.668 197.603 573.305 197.331 572.134 196.787C570.952 196.243 570.022 195.486 569.359 194.516C568.695 193.535 568.369 192.477 568.369 191.341H571.639C571.7 192.44 572.134 193.316 572.943 193.966C573.763 194.605 574.849 194.924 576.201 194.924C577.432 194.924 578.421 194.676 579.169 194.179C579.917 193.671 580.292 192.996 580.292 192.157ZM591.382 197.248H588.111V178.053H591.382V197.248ZM587.846 172.962C587.846 172.431 588.003 171.981 588.328 171.614C588.654 171.247 589.137 171.064 589.777 171.064C590.404 171.064 590.887 171.247 591.225 171.614C591.55 171.981 591.719 172.431 591.719 172.962C591.719 173.495 591.55 173.938 591.225 174.293C590.887 174.648 590.404 174.825 589.777 174.825C589.137 174.825 588.654 174.648 588.328 174.293C588.003 173.938 587.846 173.495 587.846 172.962ZM595.859 187.491C595.859 184.5 596.546 182.122 597.922 180.36C599.298 178.586 601.132 177.699 603.401 177.699C605.73 177.699 607.552 178.527 608.867 180.182L609.024 178.053H612.005V196.787C612.005 199.271 611.268 201.228 609.796 202.659C608.336 204.089 606.369 204.805 603.895 204.805C602.52 204.805 601.168 204.51 599.853 203.919C598.525 203.328 597.524 202.517 596.824 201.488L598.525 199.519C599.925 201.258 601.639 202.126 603.666 202.126C605.259 202.126 606.49 201.677 607.383 200.778C608.276 199.88 608.722 198.614 608.722 196.982V195.332C607.419 196.846 605.633 197.603 603.364 197.603C601.132 197.603 599.31 196.698 597.922 194.889C596.546 193.08 595.859 190.613 595.859 187.491ZM599.141 187.864C599.141 190.028 599.587 191.731 600.468 192.973C601.349 194.202 602.592 194.818 604.173 194.818C606.236 194.818 607.757 193.878 608.722 191.997V183.234C607.721 181.401 606.212 180.484 604.209 180.484C602.628 180.484 601.385 181.105 600.48 182.346C599.587 183.589 599.141 185.427 599.141 187.864ZM620.053 178.053L620.162 180.467C621.622 178.621 623.529 177.699 625.882 177.699C629.924 177.699 631.964 179.987 632 184.564V197.248H628.73V184.547C628.718 183.163 628.404 182.139 627.776 181.478C627.161 180.816 626.208 180.484 624.892 180.484C623.83 180.484 622.901 180.769 622.105 181.335C621.296 181.903 620.681 182.648 620.234 183.571V197.248H616.964V178.053H620.053Z" fill="black"/>
</svg>
